<svg width="24" height="24" viewBox="0 0 24 24" fill="none" xmlns="http://www.w3.org/2000/svg">
<circle cx="12" cy="12" r="10" fill="#EFF6FF"/>
<path d="M10.5779 9.95954C10.5854 9.94659 10.5926 9.94116 10.5983 9.93799C10.6054 9.93406 10.6154 9.93105 10.6273 9.93105C10.6391 9.93105 10.6491 9.93406 10.6562 9.93799C10.6619 9.94116 10.6691 9.94659 10.6766 9.95954L14.1302 15.9413C14.1377 15.9543 14.1388 15.9632 14.1387 15.9697C14.1385 15.9779 14.1361 15.988 14.1302 15.9983C14.1242 16.0086 14.1166 16.0157 14.1097 16.0199C14.1041 16.0233 14.0958 16.0268 14.0808 16.0268H7.17366C7.15871 16.0268 7.15042 16.0233 7.14481 16.0199C7.13786 16.0157 7.13026 16.0086 7.12432 15.9983C7.11839 15.988 7.11599 15.9779 7.11585 15.9697C7.11573 15.9632 7.11685 15.9543 7.12432 15.9413L10.5779 9.95954Z" stroke="#94A3B8" stroke-width="1.02545"/>
<path d="M10.627 9.70302V7.99393M10.627 7.99393V6.18436C10.627 6.09966 10.7161 6.04457 10.7918 6.08245L12.672 7.02254C12.761 7.06703 12.7542 7.1962 12.6611 7.23113L10.627 7.99393Z" stroke="#94A3B8" stroke-width="1.02545"/>
<mask id="path-4-inside-1_1143_19423" fill="white">
<path fill-rule="evenodd" clip-rule="evenodd" d="M12.3601 12.8338L13.4771 10.8992L16.1412 15.5137H13.9074L14.006 15.6846C14.2253 16.0644 13.9512 16.5392 13.5127 16.5392H16.9306C17.3692 16.5392 17.6433 16.0644 17.424 15.6846L13.9704 9.70282C13.7511 9.32302 13.203 9.32302 12.9837 9.70282L11.7681 11.8083L12.3601 12.8338Z"/>
</mask>
<path fill-rule="evenodd" clip-rule="evenodd" d="M12.3601 12.8338L13.4771 10.8992L16.1412 15.5137H13.9074L14.006 15.6846C14.2253 16.0644 13.9512 16.5392 13.5127 16.5392H16.9306C17.3692 16.5392 17.6433 16.0644 17.424 15.6846L13.9704 9.70282C13.7511 9.32302 13.203 9.32302 12.9837 9.70282L11.7681 11.8083L12.3601 12.8338Z" fill="#94A3B8"/>
<path d="M13.4771 10.8992L14.3651 10.3864L13.4771 8.84827L12.589 10.3864L13.4771 10.8992ZM12.3601 12.8338L11.472 13.3465L12.3601 14.8847L13.2482 13.3465L12.3601 12.8338ZM16.1412 15.5137V16.5392H17.9174L17.0293 15.001L16.1412 15.5137ZM13.9074 15.5137V14.4883H12.1312L13.0193 16.0264L13.9074 15.5137ZM14.006 15.6846L13.118 16.1973H13.118L14.006 15.6846ZM17.424 15.6846L18.3121 15.1719L18.3121 15.1719L17.424 15.6846ZM13.9704 9.70282L13.0824 10.2155L13.0824 10.2155L13.9704 9.70282ZM12.9837 9.70282L12.0956 9.19009L12.0956 9.19009L12.9837 9.70282ZM11.7681 11.8083L10.88 11.2956L10.584 11.8083L10.88 12.321L11.7681 11.8083ZM12.589 10.3864L11.472 12.321L13.2482 13.3465L14.3651 11.4119L12.589 10.3864ZM17.0293 15.001L14.3651 10.3864L12.589 11.4119L15.2532 16.0264L17.0293 15.001ZM13.9074 16.5392H16.1412V14.4883H13.9074V16.5392ZM13.0193 16.0264L13.118 16.1973L14.8941 15.1719L14.7954 15.001L13.0193 16.0264ZM13.118 16.1973C12.9426 15.8935 13.1618 15.5137 13.5127 15.5137V17.5646C14.7406 17.5646 15.5081 16.2353 14.8941 15.1719L13.118 16.1973ZM13.5127 17.5646H16.9306V15.5137H13.5127V17.5646ZM16.9306 17.5646C18.1586 17.5646 18.926 16.2353 18.3121 15.1719L16.5359 16.1973C16.3605 15.8935 16.5798 15.5137 16.9306 15.5137V17.5646ZM18.3121 15.1719L14.8585 9.19009L13.0824 10.2155L16.5359 16.1973L18.3121 15.1719ZM14.8585 9.19009C14.2445 8.12666 12.7096 8.12666 12.0956 9.19009L13.8717 10.2155C13.6963 10.5194 13.2578 10.5194 13.0824 10.2155L14.8585 9.19009ZM12.0956 9.19009L10.88 11.2956L12.6561 12.321L13.8717 10.2155L12.0956 9.19009ZM10.88 12.321L11.472 13.3465L13.2482 12.321L12.6561 11.2956L10.88 12.321Z" fill="#94A3B8" mask="url(#path-4-inside-1_1143_19423)"/>
</svg>
