<svg width="106" height="35" viewBox="0 0 106 35" fill="none" xmlns="http://www.w3.org/2000/svg">
<path d="M36.0861 13.426H31.9925C31.6179 13.426 31.2834 13.5599 30.9891 13.8278C30.6948 14.0957 30.5276 14.4171 30.4874 14.7921C30.4339 15.1805 30.5209 15.5086 30.7483 15.7765C30.9757 16.031 31.2767 16.1582 31.6513 16.1582H31.7918C32.3537 16.1582 32.8687 16.2654 33.337 16.4796C33.8052 16.6939 34.1998 16.9886 34.5209 17.3636C34.8554 17.7252 35.0962 18.1538 35.2433 18.6494C35.4039 19.1449 35.4507 19.6739 35.3838 20.2364C35.3169 20.799 35.143 21.3347 34.8621 21.8436C34.5945 22.3392 34.2534 22.7745 33.8386 23.1495C33.4239 23.5111 32.9557 23.799 32.4339 24.0133C31.9122 24.2276 31.3704 24.3348 30.8085 24.3348H26.7148L27.0359 21.6026H31.1296C31.5042 21.6026 31.8386 21.4753 32.1329 21.2209C32.4406 20.953 32.6212 20.6249 32.6747 20.2364C32.7149 19.8614 32.6145 19.5467 32.3737 19.2922C32.1463 19.0244 31.8453 18.8904 31.4707 18.8904H31.3303C30.7684 18.8904 30.2533 18.7833 29.7851 18.569C29.3169 18.3547 28.9222 18.0667 28.6011 17.7051C28.2801 17.3301 28.0393 16.8948 27.8787 16.3993C27.7316 15.8903 27.6914 15.3546 27.7583 14.7921C27.8252 14.2296 27.9924 13.7006 28.26 13.205C28.5409 12.7095 28.8888 12.2809 29.3035 11.9193C29.7182 11.5442 30.1864 11.2496 30.7082 11.0353C31.2299 10.821 31.7717 10.7139 32.3336 10.7139H36.4273L36.0861 13.426Z" fill="#1F2937"/>
<path d="M40.4208 10.7139L38.7552 24.3348H36.0261L37.6917 10.7139H40.4208Z" fill="#1F2937"/>
<path d="M44.1739 14.3501L42.9498 24.3348H40.2408L41.4649 14.3501H44.1739ZM44.6154 10.734L44.2743 13.4461H41.5652L41.9064 10.734H44.6154Z" fill="#1F2937"/>
<path d="M54.4073 10.7139L52.7418 24.3348H46.9424C46.5678 24.3348 46.22 24.2678 45.8989 24.1339C45.5912 23.9866 45.3303 23.7923 45.1163 23.5513C44.9023 23.2968 44.7417 23.0088 44.6347 22.6874C44.541 22.3526 44.5143 21.9977 44.5544 21.6226L44.9959 17.9864C45.0628 17.4908 45.2166 17.0221 45.4574 16.5801C45.6982 16.1381 45.9992 15.7497 46.3605 15.4149C46.735 15.0801 47.1498 14.8189 47.6046 14.6314C48.0728 14.4439 48.5611 14.3501 49.0695 14.3501H51.2568L51.6983 10.7139H54.4073ZM50.3538 21.6226L50.9157 17.0823H48.7284C48.4742 17.0823 48.2468 17.1694 48.0461 17.3435C47.8454 17.5176 47.7317 17.7319 47.7049 17.9864L47.3839 20.6985L47.2635 21.6226H50.3538Z" fill="#1F2937"/>
<path d="M65.3181 21.6226L64.9971 24.3348H63.7128C63.2178 24.3348 62.7629 24.241 62.3482 24.0535C61.9335 23.866 61.579 23.6048 61.2847 23.27C60.9904 22.9352 60.7763 22.5535 60.6425 22.1249C60.5087 21.6829 60.4753 21.2075 60.5422 20.6985L60.9837 17.0823H60.3616L60.7027 14.3501H61.3248L61.4251 13.4461L61.7663 10.7139H64.4753L64.1342 13.4461L64.0338 14.3501H66.2212L65.88 17.0823H63.6927L63.2512 20.6985C63.2245 20.953 63.2847 21.174 63.4318 21.3615C63.5924 21.5356 63.793 21.6226 64.0338 21.6226H65.3181Z" fill="#3B82F6"/>
<path d="M75.4746 17.9864L75.1535 20.7186C75.0866 21.2142 74.9327 21.6829 74.6919 22.1249C74.4511 22.5669 74.1434 22.9553 73.7689 23.2901C73.4077 23.6115 72.9929 23.866 72.5247 24.0535C72.0699 24.241 71.5949 24.3348 71.1 24.3348H69.5749C69.0799 24.3348 68.625 24.241 68.2103 24.0535C67.7956 23.866 67.4411 23.6115 67.1468 23.2901C66.8524 22.9553 66.6384 22.5669 66.5046 22.1249C66.3708 21.6829 66.3374 21.2142 66.4043 20.7186L66.7253 17.9864C66.7922 17.4908 66.9461 17.0221 67.1869 16.5801C67.4277 16.1381 67.7287 15.7564 68.0899 15.435C68.4645 15.1001 68.8792 14.839 69.334 14.6515C69.8023 14.464 70.2839 14.3702 70.7789 14.3702H72.304C72.799 14.3702 73.2538 14.464 73.6685 14.6515C74.0966 14.839 74.4511 15.1001 74.7321 15.435C75.0264 15.7564 75.2404 16.1381 75.3742 16.5801C75.508 17.0221 75.5414 17.4908 75.4746 17.9864ZM72.4444 20.7186L72.7655 17.9864C72.7923 17.7319 72.7254 17.5176 72.5648 17.3435C72.4177 17.1694 72.2237 17.0823 71.9829 17.0823H70.4578C70.2036 17.0823 69.9762 17.1694 69.7755 17.3435C69.5749 17.5176 69.4611 17.7319 69.4344 17.9864L69.1133 20.7186C69.0866 20.9731 69.1468 21.1874 69.2939 21.3615C69.4411 21.5356 69.6417 21.6226 69.8959 21.6226H71.421C71.6618 21.6226 71.8826 21.5356 72.0832 21.3615C72.2973 21.1874 72.4177 20.9731 72.4444 20.7186Z" fill="#3B82F6"/>
<path d="M75.5876 19.7744L75.9488 18.1471H80.6846L80.3234 19.7744H77.9555H75.5876Z" fill="#3B82F6"/>
<path d="M92.0722 10.7139L90.4066 24.3348H84.6072C84.2327 24.3348 83.8848 24.2678 83.5638 24.1339C83.2561 23.9866 82.9952 23.7923 82.7812 23.5513C82.5671 23.2968 82.4066 23.0088 82.2995 22.6874C82.2059 22.3526 82.1791 21.9977 82.2193 21.6226L82.6607 17.9864C82.7276 17.4908 82.8815 17.0221 83.1223 16.5801C83.3631 16.1381 83.6641 15.7497 84.0253 15.4149C84.3999 15.0801 84.8146 14.8189 85.2695 14.6314C85.7377 14.4439 86.226 14.3501 86.7344 14.3501H88.9217L89.3631 10.7139H92.0722ZM88.0186 21.6226L88.5805 17.0823H86.3932C86.139 17.0823 85.9116 17.1694 85.7109 17.3435C85.5103 17.5176 85.3965 17.7319 85.3698 17.9864L85.0487 20.6985L84.9283 21.6226H88.0186Z" fill="#3B82F6"/>
<path d="M100.872 17.9864L100.551 20.7186C100.484 21.2142 100.33 21.6829 100.089 22.1249C99.8485 22.5669 99.5408 22.9553 99.1662 23.2901C98.805 23.6115 98.3903 23.866 97.922 24.0535C97.4672 24.241 96.9923 24.3348 96.4973 24.3348H94.9722C94.4772 24.3348 94.0223 24.241 93.6076 24.0535C93.1929 23.866 92.8384 23.6115 92.5441 23.2901C92.2497 22.9553 92.0357 22.5669 91.9019 22.1249C91.7681 21.6829 91.7347 21.2142 91.8016 20.7186L92.1227 17.9864C92.1895 17.4908 92.3434 17.0221 92.5842 16.5801C92.825 16.1381 93.126 15.7564 93.4872 15.435C93.8618 15.1001 94.2765 14.839 94.7314 14.6515C95.1996 14.464 95.6812 14.3702 96.1762 14.3702H97.7013C98.1963 14.3702 98.6511 14.464 99.0658 14.6515C99.4939 14.839 99.8485 15.1001 100.129 15.435C100.424 15.7564 100.638 16.1381 100.772 16.5801C100.905 17.0221 100.939 17.4908 100.872 17.9864ZM97.8418 20.7186L98.1628 17.9864C98.1896 17.7319 98.1227 17.5176 97.9622 17.3435C97.815 17.1694 97.621 17.0823 97.3802 17.0823H95.8551C95.6009 17.0823 95.3735 17.1694 95.1728 17.3435C94.9722 17.5176 94.8585 17.7319 94.8317 17.9864L94.5106 20.7186C94.4839 20.9731 94.5441 21.1874 94.6912 21.3615C94.8384 21.5356 95.0391 21.6226 95.2932 21.6226H96.8183C97.0591 21.6226 97.2799 21.5356 97.4805 21.3615C97.6946 21.1874 97.815 20.9731 97.8418 20.7186Z" fill="#3B82F6"/>
<rect x="17.3252" y="10.0542" width="3.59459" height="15.4054" rx="1.54054" fill="#1D4ED8"/>
<path d="M5 12.7288C5 11.7661 5.66866 10.9325 6.60847 10.7236L16.3652 8.55548C17.648 8.27041 18.8649 9.24654 18.8649 10.5606V24.5306C18.8649 25.8149 17.6996 26.7842 16.4368 26.5504L6.68003 24.7435C5.70641 24.5632 5 23.714 5 22.7238V12.7288Z" fill="#3B82F6"/>
<path d="M9.1084 16.9868L10.6489 18.784L13.73 15.1895" stroke="#F8FAFC" stroke-width="1.23243" stroke-linecap="round" stroke-linejoin="round"/>
</svg>
